<svg xmlns="http://www.w3.org/2000/svg" viewBox="0 0 720 450" width="720" height="450">
  <defs>
    <!-- Room atmosphere -->
    <linearGradient id="room" x1="0%" y1="0%" x2="0%" y2="100%">
      <stop offset="0%" stop-color="#0A0810"/>
      <stop offset="60%" stop-color="#0E0B14"/>
      <stop offset="100%" stop-color="#06040A"/>
    </linearGradient>
    <!-- TV screen glow -->
    <radialGradient id="tvLight" cx="50%" cy="50%" r="50%">
      <stop offset="0%" stop-color="#2060D0" stop-opacity="0.5"/>
      <stop offset="100%" stop-color="#0820A0" stop-opacity="0"/>
    </radialGradient>
    <!-- Screen content gradient -->
    <linearGradient id="pitchGrad" x1="0%" y1="0%" x2="0%" y2="100%">
      <stop offset="0%" stop-color="#1A6B2A"/>
      <stop offset="100%" stop-color="#0F4018"/>
    </linearGradient>
    <!-- Skin tones -->
    <radialGradient id="skin1" cx="50%" cy="40%" r="55%">
      <stop offset="0%" stop-color="#E8C49A"/>
      <stop offset="100%" stop-color="#C89060"/>
    </radialGradient>
    <radialGradient id="skin2" cx="50%" cy="40%" r="55%">
      <stop offset="0%" stop-color="#F0D0A8"/>
      <stop offset="100%" stop-color="#D4A870"/>
    </radialGradient>
    <radialGradient id="skin3" cx="50%" cy="40%" r="55%">
      <stop offset="0%" stop-color="#FDDCB0"/>
      <stop offset="100%" stop-color="#E0B078"/>
    </radialGradient>
    <radialGradient id="skin4" cx="50%" cy="40%" r="55%">
      <stop offset="0%" stop-color="#F5C898"/>
      <stop offset="100%" stop-color="#D9A060"/>
    </radialGradient>
    <!-- Hair gradients -->
    <linearGradient id="hairBlonde" x1="0%" y1="0%" x2="100%" y2="100%">
      <stop offset="0%" stop-color="#D4AC30"/>
      <stop offset="100%" stop-color="#B89020"/>
    </linearGradient>
    <linearGradient id="hairBrown" x1="0%" y1="0%" x2="100%" y2="100%">
      <stop offset="0%" stop-color="#4A2E18"/>
      <stop offset="100%" stop-color="#2E1A0A"/>
    </linearGradient>
    <linearGradient id="hairDark" x1="0%" y1="0%" x2="100%" y2="100%">
      <stop offset="0%" stop-color="#1A1208"/>
      <stop offset="100%" stop-color="#0A0804"/>
    </linearGradient>
    <linearGradient id="hairGrey" x1="0%" y1="0%" x2="100%" y2="100%">
      <stop offset="0%" stop-color="#888880"/>
      <stop offset="100%" stop-color="#606060"/>
    </linearGradient>
    <!-- Couch fabric -->
    <linearGradient id="couchColor" x1="0%" y1="0%" x2="0%" y2="100%">
      <stop offset="0%" stop-color="#2A1E14"/>
      <stop offset="100%" stop-color="#1A120A"/>
    </linearGradient>
    <!-- Floor -->
    <linearGradient id="floorColor" x1="0%" y1="0%" x2="0%" y2="100%">
      <stop offset="0%" stop-color="#18120A"/>
      <stop offset="100%" stop-color="#100C06"/>
    </linearGradient>
    <!-- TV frame -->
    <linearGradient id="tvFrame" x1="0%" y1="0%" x2="0%" y2="100%">
      <stop offset="0%" stop-color="#1E1E22"/>
      <stop offset="100%" stop-color="#0E0E12"/>
    </linearGradient>
    <!-- Gold accent -->
    <linearGradient id="goldAcc" x1="0%" y1="0%" x2="100%" y2="0%">
      <stop offset="0%" stop-color="#FFCC00" stop-opacity="0"/>
      <stop offset="40%" stop-color="#FFCC00"/>
      <stop offset="60%" stop-color="#FFB800"/>
      <stop offset="100%" stop-color="#FFB800" stop-opacity="0"/>
    </linearGradient>
    <!-- Filters -->
    <filter id="f_blur3"><feGaussianBlur stdDeviation="3"/></filter>
    <filter id="f_blur6"><feGaussianBlur stdDeviation="6"/></filter>
    <filter id="f_blur12"><feGaussianBlur stdDeviation="12"/></filter>
    <filter id="f_blur20"><feGaussianBlur stdDeviation="20"/></filter>
    <filter id="f_glow2">
      <feGaussianBlur stdDeviation="2" result="b"/>
      <feMerge><feMergeNode in="b"/><feMergeNode in="SourceGraphic"/></feMerge>
    </filter>
    <filter id="f_glow5">
      <feGaussianBlur stdDeviation="5" result="b"/>
      <feMerge><feMergeNode in="b"/><feMergeNode in="b"/><feMergeNode in="SourceGraphic"/></feMerge>
    </filter>
    <filter id="f_shadow">
      <feDropShadow dx="0" dy="4" stdDeviation="6" flood-color="rgba(0,0,0,0.7)"/>
    </filter>
    <filter id="f_softshadow">
      <feDropShadow dx="0" dy="2" stdDeviation="3" flood-color="rgba(0,0,0,0.5)"/>
    </filter>
    <!-- Clip for TV screen -->
    <clipPath id="tvScreenClip">
      <rect x="210" y="32" width="302" height="190" rx="4"/>
    </clipPath>
    <!-- Clip for whole image -->
    <clipPath id="imgClip">
      <rect width="720" height="450" rx="0"/>
    </clipPath>
  </defs>

  <g clip-path="url(#imgClip)">

  <!-- ═══════════════════════════════════════
       BACKGROUND ROOM
  ═══════════════════════════════════════ -->
  <rect width="720" height="450" fill="url(#room)"/>

  <!-- Wall texture — subtle panels -->
  <rect x="0" y="0" width="720" height="280" fill="#090710" opacity="0.9"/>
  <!-- Wall vertical panels -->
  <rect x="0" y="0" width="1" height="280" fill="rgba(255,255,255,0.015)"/>
  <rect x="180" y="0" width="1" height="280" fill="rgba(255,255,255,0.02)"/>
  <rect x="360" y="0" width="1" height="280" fill="rgba(255,255,255,0.02)"/>
  <rect x="540" y="0" width="1" height="280" fill="rgba(255,255,255,0.02)"/>
  <rect x="720" y="0" width="1" height="280" fill="rgba(255,255,255,0.015)"/>
  <!-- Skirting board -->
  <rect x="0" y="275" width="720" height="6" fill="#14100C"/>
  <rect x="0" y="275" width="720" height="1" fill="rgba(255,255,255,0.04)"/>

  <!-- TV blue-white light bloom on wall -->
  <ellipse cx="361" cy="130" rx="260" ry="150" fill="url(#tvLight)" filter="url(#f_blur20)" opacity="0.8"/>

  <!-- Floor -->
  <rect x="0" y="281" width="720" height="169" fill="url(#floorColor)"/>
  <!-- Floor reflection of TV light -->
  <ellipse cx="361" cy="310" rx="200" ry="40" fill="#1030A0" opacity="0.07" filter="url(#f_blur12)"/>
  <!-- Floor wood planks -->
  <line x1="0" y1="295" x2="720" y2="295" stroke="rgba(255,255,255,0.025)" stroke-width="1"/>
  <line x1="0" y1="315" x2="720" y2="315" stroke="rgba(255,255,255,0.02)" stroke-width="1"/>
  <line x1="0" y1="335" x2="720" y2="335" stroke="rgba(255,255,255,0.02)" stroke-width="1"/>
  <line x1="0" y1="355" x2="720" y2="355" stroke="rgba(255,255,255,0.015)" stroke-width="1"/>

  <!-- ═══════════════════════════════════════
       GERMAN FLAG STRIPE — top decoration
  ═══════════════════════════════════════ -->
  <rect x="0" y="0" width="720" height="4" fill="#111"/>
  <rect x="0" y="4" width="720" height="4" fill="#CC0000"/>
  <rect x="0" y="8" width="720" height="3.5" fill="#FFCC00"/>
  <rect x="0" y="8" width="720" height="3.5" fill="#FFCC00" opacity="0.4" filter="url(#f_blur3)"/>

  <!-- ═══════════════════════════════════════
       TELEVISION — Samsung large flat screen
  ═══════════════════════════════════════ -->
  <!-- TV wall mount shadow -->
  <ellipse cx="361" cy="220" rx="170" ry="8" fill="rgba(0,0,0,0.4)" filter="url(#f_blur6)"/>
  <!-- TV outer frame -->
  <rect x="196" y="18" width="328" height="220" rx="10" fill="url(#tvFrame)" filter="url(#f_shadow)"/>
  <!-- TV bezel -->
  <rect x="202" y="24" width="316" height="208" rx="7" fill="#141418" stroke="rgba(255,255,255,0.06)" stroke-width="0.5"/>
  <!-- TV screen backing -->
  <rect x="210" y="30" width="302" height="192" rx="4" fill="#000814"/>

  <!-- ── SCREEN CONTENT: World Cup Match ── -->
  <g clip-path="url(#tvScreenClip)">
    <!-- Pitch background -->
    <rect x="210" y="32" width="302" height="188" fill="url(#pitchGrad)"/>
    <!-- Grass stripe alternation -->
    <rect x="210" y="32"  width="302" height="14" fill="#1E7530" opacity="0.5"/>
    <rect x="210" y="60"  width="302" height="14" fill="#1E7530" opacity="0.5"/>
    <rect x="210" y="88"  width="302" height="14" fill="#1E7530" opacity="0.5"/>
    <rect x="210" y="116" width="302" height="14" fill="#1E7530" opacity="0.5"/>
    <rect x="210" y="144" width="302" height="14" fill="#1E7530" opacity="0.5"/>
    <rect x="210" y="172" width="302" height="14" fill="#1E7530" opacity="0.5"/>
    <rect x="210" y="200" width="302" height="14" fill="#1E7530" opacity="0.5"/>

    <!-- Pitch markings — white lines -->
    <!-- Outer border -->
    <rect x="224" y="42" width="274" height="168" fill="none" stroke="rgba(255,255,255,0.5)" stroke-width="1.5"/>
    <!-- Center line -->
    <line x1="361" y1="42" x2="361" y2="210" stroke="rgba(255,255,255,0.45)" stroke-width="1.2"/>
    <!-- Center circle -->
    <circle cx="361" cy="126" r="28" fill="none" stroke="rgba(255,255,255,0.45)" stroke-width="1.2"/>
    <circle cx="361" cy="126" r="2.5" fill="rgba(255,255,255,0.6)"/>
    <!-- Penalty area top -->
    <rect x="296" y="42" width="130" height="38" fill="none" stroke="rgba(255,255,255,0.4)" stroke-width="1.2"/>
    <rect x="318" y="42" width="86" height="18" fill="none" stroke="rgba(255,255,255,0.35)" stroke-width="1"/>
    <!-- Penalty area bottom -->
    <rect x="296" y="172" width="130" height="38" fill="none" stroke="rgba(255,255,255,0.4)" stroke-width="1.2"/>
    <rect x="318" y="192" width="86" height="18" fill="none" stroke="rgba(255,255,255,0.35)" stroke-width="1"/>
    <!-- Goals -->
    <rect x="330" y="37" width="62" height="7" fill="none" stroke="rgba(255,255,255,0.55)" stroke-width="1.5"/>
    <rect x="330" y="208" width="62" height="7" fill="none" stroke="rgba(255,255,255,0.55)" stroke-width="1.5"/>
    <!-- Corner arcs -->
    <path d="M224 42 Q228 42 228 46" fill="none" stroke="rgba(255,255,255,0.35)" stroke-width="1"/>
    <path d="M498 42 Q494 42 494 46" fill="none" stroke="rgba(255,255,255,0.35)" stroke-width="1"/>

    <!-- PLAYERS — Germany (white jerseys = white dots) -->
    <circle cx="285" cy="90"  r="5" fill="#FFFFFF" opacity="0.9" filter="url(#f_glow2)"/>
    <circle cx="350" cy="78"  r="5" fill="#FFFFFF" opacity="0.9" filter="url(#f_glow2)"/>
    <circle cx="310" cy="122" r="5" fill="#FFFFFF" opacity="0.9" filter="url(#f_glow2)"/>
    <circle cx="268" cy="115" r="4.5" fill="#FFFFFF" opacity="0.85" filter="url(#f_glow2)"/>
    <circle cx="392" cy="105" r="5" fill="#FFFFFF" opacity="0.9" filter="url(#f_glow2)"/>
    <circle cx="340" cy="165" r="5" fill="#FFFFFF" opacity="0.9" filter="url(#f_glow2)"/>
    <!-- PLAYERS — Opponent (red jerseys = red dots) -->
    <circle cx="325" cy="105" r="5" fill="#FF2020" opacity="0.85" filter="url(#f_glow2)"/>
    <circle cx="378" cy="148" r="5" fill="#FF2020" opacity="0.85" filter="url(#f_glow2)"/>
    <circle cx="415" cy="98"  r="4.5" fill="#FF2020" opacity="0.8" filter="url(#f_glow2)"/>
    <circle cx="290" cy="150" r="5" fill="#FF2020" opacity="0.85" filter="url(#f_glow2)"/>
    <circle cx="360" cy="182" r="4.5" fill="#FF2020" opacity="0.8" filter="url(#f_glow2)"/>
    <!-- Ball — bright white -->
    <circle cx="337" cy="115" r="4" fill="white" filter="url(#f_glow2)"/>
    <circle cx="337" cy="115" r="2.5" fill="white"/>

    <!-- Player shadow lines (realistic touch) -->
    <ellipse cx="285" cy="93" rx="4" ry="1.5" fill="rgba(0,0,0,0.3)"/>
    <ellipse cx="350" cy="81" rx="4" ry="1.5" fill="rgba(0,0,0,0.3)"/>
    <ellipse cx="310" cy="125" rx="4" ry="1.5" fill="rgba(0,0,0,0.3)"/>

    <!-- Screen edge vignette -->
    <rect x="210" y="32" width="302" height="188"
      fill="none"
      stroke="url(#tvLight)"
      stroke-width="0"/>
    <!-- Subtle screen scanlines -->
    <rect x="210" y="32" width="302" height="188"
      fill="rgba(0,0,30,0.08)"/>
  </g>

  <!-- TV screen glass reflection overlay -->
  <rect x="210" y="30" width="302" height="192" rx="4"
    fill="none"
    stroke="rgba(255,255,255,0.04)"
    stroke-width="1"/>
  <!-- Glass sheen diagonal -->
  <polygon points="210,30 280,30 210,90"
    fill="rgba(255,255,255,0.025)"/>

  <!-- ── HUD OVERLAYS on screen ── -->
  <!-- Score bar -->
  <rect x="245" y="37" width="232" height="24" rx="4" fill="rgba(0,0,0,0.82)"/>
  <rect x="245" y="37" width="232" height="1" rx="0" fill="rgba(255,255,255,0.1)"/>
  <!-- LIVE pill -->
  <rect x="250" y="40" width="38" height="16" rx="3" fill="#CC0000"/>
  <text x="269" y="52" font-family="Arial Black,sans-serif" font-size="9" font-weight="900" fill="white" text-anchor="middle" letter-spacing="0.5">LIVE</text>
  <!-- Score -->
  <text x="361" y="53" font-family="Arial Black,sans-serif" font-size="12" font-weight="900" fill="white" text-anchor="middle" letter-spacing="1.5">GER  2 · 1  MEX</text>
  <!-- Time -->
  <rect x="448" y="40" width="24" height="16" rx="3" fill="rgba(40,40,60,0.9)" stroke="rgba(255,204,0,0.5)" stroke-width="0.5"/>
  <text x="460" y="52" font-family="Arial Black,sans-serif" font-size="8" fill="#FFCC00" text-anchor="middle" font-weight="700">76'</text>
  <!-- WM 2026 badge -->
  <rect x="210" y="32" width="55" height="16" rx="0" fill="rgba(0,0,0,0.7)"/>
  <text x="237" y="44" font-family="Arial,sans-serif" font-size="7.5" fill="rgba(255,204,0,0.9)" text-anchor="middle" font-weight="700" letter-spacing="0.5">FIFA WM 2026</text>
  <!-- Channel logo area -->
  <rect x="455" y="32" width="55" height="16" rx="0" fill="rgba(0,0,0,0.7)"/>
  <text x="482" y="44" font-family="Arial Black,sans-serif" font-size="7" fill="rgba(255,255,255,0.7)" text-anchor="middle" letter-spacing="1">ARD HD</text>

  <!-- TV bottom bezel / chin -->
  <rect x="202" y="222" width="316" height="12" rx="0" fill="#101014"/>
  <!-- Samsung logo dot -->
  <circle cx="361" cy="228" r="1.5" fill="rgba(255,255,255,0.15)"/>
  <!-- TV stand arm -->
  <rect x="346" y="234" width="30" height="22" rx="2" fill="#0E0E12"/>
  <rect x="326" y="254" width="70" height="8" rx="4" fill="#0E0E12"/>
  <!-- Stand shadow on wall -->
  <ellipse cx="361" cy="236" rx="50" ry="6" fill="rgba(0,0,0,0.3)" filter="url(#f_blur3)"/>

  <!-- ═══════════════════════════════════════
       TV UNIT / ENTERTAINMENT CENTER
  ═══════════════════════════════════════ -->
  <rect x="100" y="262" width="520" height="20" rx="4" fill="#1A1410"/>
  <rect x="100" y="262" width="520" height="2" rx="2" fill="rgba(255,255,255,0.04)"/>
  <!-- Console/decoration items -->
  <rect x="120" y="246" width="60" height="18" rx="3" fill="#140E0A" opacity="0.8"/>
  <rect x="540" y="246" width="60" height="18" rx="3" fill="#140E0A" opacity="0.8"/>
  <!-- Small plant decoration -->
  <ellipse cx="135" cy="248" rx="12" ry="6" fill="#0A2A0A"/>
  <rect x="133" y="248" width="4" height="10" rx="2" fill="#1A0A04"/>
  <!-- Remote on unit -->
  <rect x="345" y="248" width="32" height="12" rx="4" fill="#0A0808"/>
  <circle cx="362" cy="251" r="2" fill="rgba(255,0,0,0.5)"/>

  <!-- ═══════════════════════════════════════
       SOFA — realistic dark leather
  ═══════════════════════════════════════ -->
  <!-- Sofa shadow on floor -->
  <ellipse cx="361" cy="392" rx="230" ry="18" fill="rgba(0,0,0,0.5)" filter="url(#f_blur6)"/>
  <!-- Sofa back -->
  <rect x="88" y="290" width="544" height="110" rx="16" fill="url(#couchColor)" filter="url(#f_shadow)"/>
  <!-- Sofa back highlight top -->
  <rect x="88" y="290" width="544" height="3" rx="3" fill="rgba(255,255,255,0.04)"/>
  <!-- Sofa seat -->
  <rect x="88" y="356" width="544" height="62" rx="12" fill="#221A10"/>
  <!-- Sofa seat front edge -->
  <rect x="88" y="410" width="544" height="8" rx="4" fill="#1A1208"/>
  <!-- Sofa arms -->
  <rect x="80" y="286" width="42" height="90" rx="12" fill="#1E1610"/>
  <rect x="80" y="286" width="42" height="4" rx="4" fill="rgba(255,255,255,0.04)"/>
  <rect x="598" y="286" width="42" height="90" rx="12" fill="#1E1610"/>
  <rect x="598" y="286" width="42" height="4" rx="4" fill="rgba(255,255,255,0.04)"/>
  <!-- Sofa cushion dividers (3 seats) -->
  <line x1="268" y1="300" x2="268" y2="415" stroke="rgba(0,0,0,0.35)" stroke-width="3"/>
  <line x1="452" y1="300" x2="452" y2="415" stroke="rgba(0,0,0,0.35)" stroke-width="3"/>
  <!-- Sofa seat cushion detail -->
  <rect x="96" y="360" width="164" height="50" rx="6" fill="#261E14"/>
  <rect x="276" y="360" width="168" height="50" rx="6" fill="#261E14"/>
  <rect x="460" y="360" width="164" height="50" rx="6" fill="#261E14"/>
  <!-- Sofa legs -->
  <rect x="114" y="415" width="18" height="20" rx="4" fill="#0E0A06"/>
  <rect x="588" y="415" width="18" height="20" rx="4" fill="#0E0A06"/>
  <rect x="248" y="415" width="14" height="18" rx="3" fill="#0E0A06"/>
  <rect x="458" y="415" width="14" height="18" rx="3" fill="#0E0A06"/>

  <!-- Throw pillow on left arm -->
  <rect x="86" y="305" width="38" height="38" rx="8" fill="#3A1A1A"/>
  <line x1="105" y1="305" x2="105" y2="343" stroke="rgba(255,255,255,0.04)" stroke-width="1"/>

  <!-- ═══════════════════════════════════════
       PERSON 1 — VATER (Father, left)
       Dark hair, German jersey, leaning forward excited
  ═══════════════════════════════════════ -->
  <g filter="url(#f_softshadow)">
    <!-- Body / torso — German black jersey -->
    <rect x="122" y="272" width="56" height="75" rx="14" fill="#111111"/>
    <!-- Jersey collar -->
    <path d="M148 272 Q150 266 152 272" fill="none" stroke="rgba(255,255,255,0.15)" stroke-width="2"/>
    <!-- DFB eagle (stylized) -->
    <text x="150" y="298" font-family="serif" font-size="10" fill="rgba(255,204,0,0.3)" text-anchor="middle">✦</text>
    <!-- Jersey number -->
    <text x="150" y="320" font-family="Arial Black,sans-serif" font-size="11" fill="rgba(255,255,255,0.12)" text-anchor="middle">8</text>

    <!-- Left arm — reaching forward toward screen -->
    <ellipse cx="112" cy="298" rx="12" ry="7" fill="#111" transform="rotate(-30,112,298)"/>
    <ellipse cx="92" cy="285" rx="10" ry="6" fill="#C89060" transform="rotate(-20,92,285)"/>
    <!-- Right arm — raised in excitement -->
    <ellipse cx="188" cy="285" rx="12" ry="7" fill="#111" transform="rotate(25,188,285)"/>
    <ellipse cx="205" cy="268" rx="9" ry="6" fill="#C89060" transform="rotate(20,205,268)"/>

    <!-- Neck -->
    <rect x="143" y="258" width="14" height="16" rx="4" fill="#C89060"/>
    <!-- Head -->
    <ellipse cx="150" cy="245" rx="22" ry="25" fill="url(#skin1)"/>
    <!-- Ear left -->
    <ellipse cx="128" cy="247" rx="5" ry="7" fill="#C08050"/>
    <!-- Ear right -->
    <ellipse cx="172" cy="247" rx="5" ry="7" fill="#C08050"/>
    <!-- Hair — short dark brown -->
    <path d="M128 228 Q150 215 172 228 L172 236 Q150 222 128 236 Z" fill="url(#hairDark)"/>
    <rect x="128" y="228" width="44" height="10" rx="4" fill="url(#hairDark)"/>
    <!-- Eyebrows -->
    <path d="M136 234 Q143 230 150 233" fill="none" stroke="#2A1A08" stroke-width="2.5" stroke-linecap="round"/>
    <path d="M150 233 Q157 230 164 234" fill="none" stroke="#2A1A08" stroke-width="2.5" stroke-linecap="round"/>
    <!-- Eyes — wide open, excited -->
    <ellipse cx="141" cy="241" rx="5" ry="5.5" fill="white"/>
    <ellipse cx="159" cy="241" rx="5" ry="5.5" fill="white"/>
    <ellipse cx="141" cy="242" rx="3.5" ry="3.8" fill="#2A1A08"/>
    <ellipse cx="159" cy="242" rx="3.5" ry="3.8" fill="#2A1A08"/>
    <!-- Eye shine -->
    <circle cx="143" cy="240" r="1" fill="rgba(255,255,255,0.7)"/>
    <circle cx="161" cy="240" r="1" fill="rgba(255,255,255,0.7)"/>
    <!-- Nose -->
    <path d="M148 249 Q150 254 152 249" fill="none" stroke="rgba(0,0,0,0.2)" stroke-width="1.5" stroke-linecap="round"/>
    <!-- Mouth — big open smile, cheering -->
    <path d="M138 255 Q150 268 162 255" fill="#8B3020" stroke="#6A2018" stroke-width="0.5"/>
    <path d="M140 255 Q150 264 160 255" fill="white" opacity="0.7"/>
    <!-- Stubble/beard shadow -->
    <ellipse cx="150" cy="260" rx="14" ry="6" fill="rgba(0,0,0,0.08)"/>
    <!-- German flag colors on jersey sleeve -->
    <rect x="122" y="272" width="6" height="4" rx="1" fill="#111"/>
    <rect x="122" y="276" width="6" height="4" rx="1" fill="#CC0000"/>
    <rect x="122" y="280" width="6" height="4" rx="1" fill="#FFCC00"/>
  </g>

  <!-- ═══════════════════════════════════════
       PERSON 2 — MUTTER (Mother, center-left)
       Blonde hair, casual grey top, smiling warmly
  ═══════════════════════════════════════ -->
  <g filter="url(#f_softshadow)">
    <!-- Body — grey casual sweater -->
    <rect x="238" y="278" width="52" height="78" rx="13" fill="#3A3844"/>
    <!-- Sweater neckline -->
    <path d="M264 278 Q266 271 268 278" fill="none" stroke="rgba(255,255,255,0.1)" stroke-width="2"/>
    <!-- Left arm — around son's shoulder -->
    <ellipse cx="230" cy="305" rx="11" ry="6" fill="#3A3844" transform="rotate(-20,230,305)"/>
    <ellipse cx="218" cy="316" rx="9" ry="5" fill="#D4A870" transform="rotate(-10,218,316)"/>
    <!-- Right arm — resting on sofa -->
    <ellipse cx="297" cy="310" rx="10" ry="6" fill="#3A3844" transform="rotate(15,297,310)"/>

    <!-- Neck -->
    <rect x="259" y="264" width="12" height="16" rx="4" fill="#D4A870"/>
    <!-- Head -->
    <ellipse cx="265" cy="252" rx="21" ry="23" fill="url(#skin3)"/>
    <!-- Ear left -->
    <ellipse cx="244" cy="254" rx="4.5" ry="6.5" fill="#C89858"/>
    <!-- Ear right — earring -->
    <ellipse cx="286" cy="254" rx="4.5" ry="6.5" fill="#C89858"/>
    <circle cx="287" cy="258" r="2.5" fill="#FFCC00" filter="url(#f_glow2)"/>
    <!-- Hair — blonde, longer -->
    <path d="M244 236 Q265 222 286 236 L290 265 Q265 258 240 265 Z" fill="url(#hairBlonde)" opacity="0.95"/>
    <path d="M244 236 Q265 222 286 236" fill="none" stroke="#C4A030" stroke-width="3"/>
    <!-- hair strands -->
    <path d="M242 240 L235 280" stroke="#C4A030" stroke-width="2" opacity="0.5" stroke-linecap="round"/>
    <path d="M246 238 L239 282" stroke="#D4B040" stroke-width="1.5" opacity="0.4" stroke-linecap="round"/>
    <!-- Eyebrows — thinner -->
    <path d="M252 239 Q258 236 264 238" fill="none" stroke="#8A6820" stroke-width="1.8" stroke-linecap="round"/>
    <path d="M264 238 Q270 236 276 239" fill="none" stroke="#8A6820" stroke-width="1.8" stroke-linecap="round"/>
    <!-- Eyes — happy, slightly squinting -->
    <ellipse cx="256" cy="246" rx="5" ry="4.5" fill="white"/>
    <ellipse cx="274" cy="246" rx="5" ry="4.5" fill="white"/>
    <ellipse cx="256" cy="247" rx="3.5" ry="3.5" fill="#3A2010"/>
    <ellipse cx="274" cy="247" rx="3.5" ry="3.5" fill="#3A2010"/>
    <circle cx="257.5" cy="245" r="1" fill="rgba(255,255,255,0.75)"/>
    <circle cx="275.5" cy="245" r="1" fill="rgba(255,255,255,0.75)"/>
    <!-- Nose -->
    <path d="M262 254 Q265 259 268 254" fill="none" stroke="rgba(0,0,0,0.15)" stroke-width="1.5" stroke-linecap="round"/>
    <!-- Mouth — warm bright smile -->
    <path d="M253 261 Q265 272 277 261" fill="#D4706A" stroke="#B45A54" stroke-width="0.5"/>
    <path d="M255 261 Q265 269 275 261" fill="#F0A090" opacity="0.8"/>
    <!-- Cheek blush -->
    <ellipse cx="248" cy="258" rx="6" ry="4" fill="rgba(200,80,60,0.12)"/>
    <ellipse cx="282" cy="258" rx="6" ry="4" fill="rgba(200,80,60,0.12)"/>
    <!-- Lipstick -->
    <path d="M253 261 Q265 272 277 261" fill="none" stroke="#C06060" stroke-width="0.5"/>
  </g>

  <!-- ═══════════════════════════════════════
       PERSON 3 — SOHN (Son, center, ~12 yrs)
       Brown hair, German jersey, arms up celebrating
  ═══════════════════════════════════════ -->
  <g filter="url(#f_softshadow)">
    <!-- Body — Germany white jersey -->
    <rect x="316" y="286" width="46" height="70" rx="12" fill="#E8E8E8"/>
    <!-- Jersey stripes / details -->
    <rect x="316" y="286" width="46" height="3" rx="2" fill="#222"/>
    <!-- Number on jersey -->
    <text x="339" y="320" font-family="Arial Black,sans-serif" font-size="13" fill="#111" text-anchor="middle" font-weight="900">7</text>
    <!-- DFB badge -->
    <ellipse cx="327" cy="296" rx="5" ry="5" fill="#FFCC00" opacity="0.7"/>
    <!-- Left arm raised jubilation -->
    <ellipse cx="307" cy="285" rx="10" ry="5.5" fill="#E8E8E8" transform="rotate(-50,307,285)"/>
    <ellipse cx="296" cy="270" rx="8" ry="5" fill="#D4A070" transform="rotate(-40,296,270)"/>
    <!-- Right arm raised other side -->
    <ellipse cx="369" cy="285" rx="10" ry="5.5" fill="#E8E8E8" transform="rotate(50,369,285)"/>
    <ellipse cx="381" cy="270" rx="8" ry="5" fill="#D4A070" transform="rotate(40,381,270)"/>

    <!-- Neck -->
    <rect x="333" y="274" width="12" height="14" rx="4" fill="#D4A070"/>
    <!-- Head — slightly smaller (child) -->
    <ellipse cx="339" cy="262" rx="20" ry="22" fill="url(#skin4)"/>
    <!-- Ear left -->
    <ellipse cx="319" cy="263" rx="4" ry="6" fill="#C49060"/>
    <!-- Ear right -->
    <ellipse cx="359" cy="263" rx="4" ry="6" fill="#C49060"/>
    <!-- Hair — brown, tousled -->
    <path d="M319 248 Q339 234 359 248 L360 258 Q339 242 318 258 Z" fill="url(#hairBrown)"/>
    <path d="M321 250 Q330 244 339 246 Q348 244 358 250" fill="none" stroke="#3A2010" stroke-width="1.5" opacity="0.5"/>
    <!-- Messy hair bits -->
    <path d="M330 237 Q335 232 342 236" stroke="#4A2A10" stroke-width="3" stroke-linecap="round" fill="none"/>
    <!-- Eyebrows excited -->
    <path d="M327 249 Q332 245 337 248" fill="none" stroke="#3A2010" stroke-width="2.2" stroke-linecap="round"/>
    <path d="M341 248 Q346 245 351 249" fill="none" stroke="#3A2010" stroke-width="2.2" stroke-linecap="round"/>
    <!-- Eyes very wide open — kid amazed -->
    <ellipse cx="330" cy="256" rx="5.5" ry="6" fill="white"/>
    <ellipse cx="348" cy="256" rx="5.5" ry="6" fill="white"/>
    <ellipse cx="330" cy="257" rx="4" ry="4.2" fill="#2A1808"/>
    <ellipse cx="348" cy="257" rx="4" ry="4.2" fill="#2A1808"/>
    <circle cx="331.5" cy="255" r="1.2" fill="rgba(255,255,255,0.8)"/>
    <circle cx="349.5" cy="255" r="1.2" fill="rgba(255,255,255,0.8)"/>
    <!-- Open mouth — shouting joy -->
    <ellipse cx="339" cy="268" rx="7" ry="5" fill="#7A2518"/>
    <path d="M333 268 L345 268" stroke="white" stroke-width="1.5" opacity="0.6"/>
    <!-- Upper teeth visible -->
    <rect x="334" y="264" width="10" height="4" rx="2" fill="rgba(255,255,255,0.7)"/>
    <!-- Cheeks flushed -->
    <ellipse cx="322" cy="263" rx="5" ry="3.5" fill="rgba(200,80,60,0.15)"/>
    <ellipse cx="356" cy="263" rx="5" ry="3.5" fill="rgba(200,80,60,0.15)"/>
  </g>

  <!-- ═══════════════════════════════════════
       PERSON 4 — TOCHTER (Daughter, right, ~8 yrs)
       Pigtails, pink Germany scarf, hands clasped excitedly
  ═══════════════════════════════════════ -->
  <g filter="url(#f_softshadow)">
    <!-- Body — pink hoodie -->
    <rect x="418" y="288" width="46" height="72" rx="12" fill="#8A3056"/>
    <!-- Hoodie pocket -->
    <rect x="428" y="328" width="26" height="20" rx="5" fill="#722848" opacity="0.7"/>
    <!-- German flag on chest -->
    <rect x="432" y="298" width="18" height="5" rx="1" fill="#111"/>
    <rect x="432" y="303" width="18" height="5" rx="1" fill="#CC0000"/>
    <rect x="432" y="308" width="18" height="5" rx="1" fill="#FFCC00"/>
    <!-- Arms — hands together clapping -->
    <ellipse cx="410" cy="315" rx="10" ry="5" fill="#8A3056" transform="rotate(20,410,315)"/>
    <ellipse cx="400" cy="328" rx="9" ry="5" fill="#FDDCB0" transform="rotate(10,400,328)"/>
    <ellipse cx="472" cy="315" rx="10" ry="5" fill="#8A3056" transform="rotate(-20,472,315)"/>
    <ellipse cx="482" cy="328" rx="9" ry="5" fill="#FDDCB0" transform="rotate(-10,482,328)"/>

    <!-- Neck -->
    <rect x="435" y="276" width="12" height="14" rx="4" fill="#FDDCB0"/>
    <!-- Head — rounder, cuter (child) -->
    <ellipse cx="441" cy="263" rx="21" ry="22" fill="url(#skin2)"/>
    <!-- Ear left -->
    <ellipse cx="420" cy="264" rx="4" ry="6" fill="#E8C490"/>
    <!-- Ear right -->
    <ellipse cx="462" cy="264" rx="4" ry="6" fill="#E8C490"/>
    <!-- Hair — pigtails, light brown -->
    <path d="M420 248 Q441 234 462 248 L463 262 Q441 246 419 262 Z" fill="url(#hairBrown)" opacity="0.8"/>
    <!-- Left pigtail -->
    <circle cx="422" cy="258" r="7" fill="url(#hairBrown)" opacity="0.9"/>
    <rect x="415" y="256" width="14" height="6" rx="3" fill="#CC0000" opacity="0.7"/>
    <!-- Right pigtail -->
    <circle cx="460" cy="258" r="7" fill="url(#hairBrown)" opacity="0.9"/>
    <rect x="453" y="256" width="14" height="6" rx="3" fill="#CC0000" opacity="0.7"/>
    <!-- Eyebrows — high, surprised excited -->
    <path d="M429 247 Q434 243 439 246" fill="none" stroke="#4A2A10" stroke-width="2" stroke-linecap="round"/>
    <path d="M443 246 Q448 243 453 247" fill="none" stroke="#4A2A10" stroke-width="2" stroke-linecap="round"/>
    <!-- Eyes — big child eyes, sparkly -->
    <ellipse cx="432" cy="254" rx="5.5" ry="6.5" fill="white"/>
    <ellipse cx="450" cy="254" rx="5.5" ry="6.5" fill="white"/>
    <ellipse cx="432" cy="255.5" rx="4" ry="4.5" fill="#3A2810"/>
    <ellipse cx="450" cy="255.5" rx="4" ry="4.5" fill="#3A2810"/>
    <!-- Eye sparkle -->
    <circle cx="433.5" cy="253" r="1.5" fill="rgba(255,255,255,0.9)"/>
    <circle cx="451.5" cy="253" r="1.5" fill="rgba(255,255,255,0.9)"/>
    <circle cx="435" cy="257" r="0.8" fill="rgba(255,255,255,0.5)"/>
    <circle cx="453" cy="257" r="0.8" fill="rgba(255,255,255,0.5)"/>
    <!-- Nose — small button nose -->
    <circle cx="441" cy="261" r="2.5" fill="rgba(0,0,0,0.06)"/>
    <!-- Mouth — huge smile, showing teeth -->
    <path d="M430 267 Q441 280 452 267" fill="#D4706A" stroke="#B45A54" stroke-width="0.5"/>
    <rect x="433" y="267" width="16" height="5" rx="2" fill="rgba(255,255,255,0.75)"/>
    <!-- Chubby cheeks -->
    <ellipse cx="422" cy="264" rx="7" ry="5" fill="rgba(220,100,80,0.18)"/>
    <ellipse cx="460" cy="264" rx="7" ry="5" fill="rgba(220,100,80,0.18)"/>
    <!-- German scarf around neck -->
    <path d="M422 276 Q441 282 460 276" fill="none" stroke="#111" stroke-width="5" stroke-linecap="round" opacity="0.9"/>
    <path d="M422 276 Q441 282 460 276" fill="none" stroke="#CC0000" stroke-width="3" stroke-linecap="round" opacity="0.9"/>
    <path d="M432 280 L428 295" stroke="#111" stroke-width="4" stroke-linecap="round" opacity="0.7"/>
    <path d="M432 280 L428 295" stroke="#CC0000" stroke-width="2.5" stroke-linecap="round" opacity="0.7"/>
  </g>

  <!-- ═══════════════════════════════════════
       PERSON 5 — OPA (Grandfather, far right)
       Grey hair, cardigan, beer mug, huge smile
  ═══════════════════════════════════════ -->
  <g filter="url(#f_softshadow)">
    <!-- Body — dark cardigan -->
    <rect x="514" y="280" width="58" height="80" rx="14" fill="#1E2A3A"/>
    <!-- Cardigan buttons -->
    <circle cx="543" cy="295" r="2" fill="rgba(255,255,255,0.08)"/>
    <circle cx="543" cy="308" r="2" fill="rgba(255,255,255,0.08)"/>
    <circle cx="543" cy="321" r="2" fill="rgba(255,255,255,0.08)"/>
    <!-- Cardigan lapels -->
    <path d="M514 280 L535 295 L535 280" fill="#263244"/>
    <path d="M572 280 L551 295 L551 280" fill="#263244"/>
    <!-- Left arm — holding beer mug up in toast! -->
    <ellipse cx="500" cy="290" rx="13" ry="6" fill="#1E2A3A" transform="rotate(-35,500,290)"/>
    <ellipse cx="484" cy="275" rx="11" ry="6" fill="#E8C090" transform="rotate(-30,484,275)"/>
    <!-- Beer mug (Masskrug!) -->
    <rect x="462" y="240" width="28" height="36" rx="5" fill="#CC8800" opacity="0.88"/>
    <rect x="462" y="240" width="28" height="7" rx="3" fill="#F0E060" opacity="0.75"/>
    <!-- Beer foam -->
    <ellipse cx="476" cy="240" rx="16" ry="8" fill="rgba(255,255,255,0.8)" filter="url(#f_blur3)"/>
    <ellipse cx="476" cy="239" rx="14" ry="6" fill="rgba(255,255,255,0.9)"/>
    <ellipse cx="470" cy="237" rx="5" ry="4" fill="white"/>
    <ellipse cx="480" cy="236" rx="4" ry="3.5" fill="white"/>
    <ellipse cx="476" cy="234" rx="3" ry="3" fill="white"/>
    <!-- Mug handle -->
    <rect x="490" y="248" width="8" height="18" rx="4" fill="#AA7000" opacity="0.8"/>
    <!-- Beer glow -->
    <ellipse cx="476" cy="258" rx="16" ry="8" fill="rgba(180,120,0,0.15)" filter="url(#f_blur3)"/>
    <!-- Right arm — on sofa arm -->
    <ellipse cx="578" cy="308" rx="12" ry="6" fill="#1E2A3A" transform="rotate(10,578,308)"/>

    <!-- Neck -->
    <rect x="538" y="266" width="12" height="16" rx="4" fill="#C89060"/>
    <!-- Head -->
    <ellipse cx="544" cy="253" rx="21" ry="24" fill="url(#skin1)"/>
    <!-- Ear left -->
    <ellipse cx="523" cy="255" rx="5" ry="7" fill="#B88050"/>
    <!-- Ear right -->
    <ellipse cx="565" cy="255" rx="5" ry="7" fill="#B88050"/>
    <!-- Hair — grey, thin on top, side combed -->
    <path d="M523 237 Q544 226 565 237" fill="none" stroke="#888880" stroke-width="5" stroke-linecap="round" opacity="0.6"/>
    <path d="M525 241 Q544 232 563 241" fill="none" stroke="#909088" stroke-width="3" stroke-linecap="round" opacity="0.5"/>
    <!-- Slight balding on top -->
    <ellipse cx="544" cy="235" rx="16" ry="8" fill="url(#skin1)" opacity="0.5"/>
    <!-- Wrinkle lines -->
    <path d="M528 246 Q530 244 532 246" fill="none" stroke="rgba(0,0,0,0.12)" stroke-width="1.2" stroke-linecap="round"/>
    <path d="M556 246 Q558 244 560 246" fill="none" stroke="rgba(0,0,0,0.12)" stroke-width="1.2" stroke-linecap="round"/>
    <path d="M532 260 Q540 264 548 260" fill="none" stroke="rgba(0,0,0,0.08)" stroke-width="1" stroke-linecap="round"/>
    <!-- Eyebrows — thick grey -->
    <path d="M530 240 Q537 236 543 239" fill="none" stroke="#707068" stroke-width="3" stroke-linecap="round"/>
    <path d="M545 239 Q551 236 558 240" fill="none" stroke="#707068" stroke-width="3" stroke-linecap="round"/>
    <!-- Eyes — crinkled happy -->
    <ellipse cx="535" cy="248" rx="5" ry="4" fill="white"/>
    <ellipse cx="553" cy="248" rx="5" ry="4" fill="white"/>
    <ellipse cx="535" cy="249" rx="3.5" ry="3.2" fill="#2A3A50"/>
    <ellipse cx="553" cy="249" rx="3.5" ry="3.2" fill="#2A3A50"/>
    <circle cx="536.5" cy="247" r="1" fill="rgba(255,255,255,0.7)"/>
    <circle cx="554.5" cy="247" r="1" fill="rgba(255,255,255,0.7)"/>
    <!-- Happy crinkle lines around eyes -->
    <path d="M524 245 Q528 242 526 246" fill="none" stroke="rgba(0,0,0,0.1)" stroke-width="1"/>
    <path d="M562 245 Q558 242 560 246" fill="none" stroke="rgba(0,0,0,0.1)" stroke-width="1"/>
    <!-- Nose — bigger (old man) -->
    <ellipse cx="544" cy="256" rx="5" ry="4" fill="rgba(0,0,0,0.07)"/>
    <path d="M539 258 Q544 262 549 258" fill="rgba(0,0,0,0.06)"/>
    <!-- Mouth — huge open belly laugh -->
    <path d="M530 262 Q544 278 558 262" fill="#7A2010" stroke="#5A1808" stroke-width="0.5"/>
    <rect x="533" y="262" width="22" height="7" rx="2" fill="rgba(255,255,255,0.6)"/>
    <!-- Moustache -->
    <path d="M534 258 Q544 263 554 258" fill="#909088" opacity="0.7"/>
    <!-- Cheek rosy -->
    <ellipse cx="525" cy="260" rx="7" ry="5" fill="rgba(180,60,40,0.15)"/>
    <ellipse cx="563" cy="260" rx="7" ry="5" fill="rgba(180,60,40,0.15)"/>
  </g>

  <!-- ═══════════════════════════════════════
       ATMOSPHERE EFFECTS
  ═══════════════════════════════════════ -->
  <!-- TV light casting blue-white on faces -->
  <ellipse cx="361" cy="180" rx="260" ry="100" fill="rgba(100,160,255,0.04)" filter="url(#f_blur12)"/>
  <!-- Room lamp warm light (top right) -->
  <ellipse cx="620" cy="60" rx="60" ry="40" fill="rgba(200,140,40,0.07)" filter="url(#f_blur12)"/>
  <!-- Lamp itself suggestion -->
  <ellipse cx="620" cy="45" rx="18" ry="12" fill="rgba(200,140,40,0.12)"/>
  <rect x="617" y="10" width="6" height="36" rx="3" fill="rgba(180,120,30,0.15)"/>

  <!-- Celebration confetti dots floating -->
  <circle cx="168" cy="195" r="3" fill="#FFCC00" opacity="0.7" filter="url(#f_glow2)"/>
  <circle cx="180" cy="178" r="2" fill="#CC0000" opacity="0.6"/>
  <circle cx="156" cy="182" r="2" fill="white" opacity="0.4"/>
  <circle cx="560" cy="188" r="3" fill="#FFCC00" opacity="0.65" filter="url(#f_glow2)"/>
  <circle cx="580" cy="170" r="2" fill="#CC0000" opacity="0.55"/>
  <circle cx="548" cy="175" r="2" fill="white" opacity="0.35"/>
  <circle cx="290" cy="220" r="2.5" fill="#FFCC00" opacity="0.5"/>
  <circle cx="430" cy="215" r="2.5" fill="#CC0000" opacity="0.4"/>

  <!-- Small snack bowl on coffee table (implied) -->
  <ellipse cx="220" cy="368" rx="20" ry="6" fill="#1A1208"/>
  <ellipse cx="220" cy="365" rx="18" ry="5" fill="#241A0E"/>
  <!-- Chips/snacks suggestion -->
  <ellipse cx="220" cy="363" rx="14" ry="3" fill="#C8A040" opacity="0.4"/>

  <!-- ═══════════════════════════════════════
       FLOATING INFO CARDS
  ═══════════════════════════════════════ -->
  <!-- Card: LIVE SPORT -->
  <rect x="598" y="40" width="110" height="60" rx="12" fill="rgba(6,4,12,0.95)" stroke="rgba(204,0,0,0.4)" stroke-width="1"/>
  <rect x="598" y="40" width="110" height="4" rx="3" fill="#CC0000"/>
  <text x="653" y="68" font-family="Arial Black,sans-serif" font-size="20" font-weight="900" fill="#CC0000" text-anchor="middle" filter="url(#f_glow5)">LIVE</text>
  <text x="653" y="84" font-family="Arial,sans-serif" font-size="10" fill="rgba(255,255,255,0.5)" text-anchor="middle" letter-spacing="3">SPORT</text>

  <!-- Card: 20K+ -->
  <rect x="598" y="116" width="110" height="56" rx="12" fill="rgba(6,4,12,0.95)" stroke="rgba(255,204,0,0.3)" stroke-width="1"/>
  <rect x="598" y="116" width="110" height="4" rx="3" fill="#FFCC00"/>
  <text x="653" y="144" font-family="Arial Black,sans-serif" font-size="20" font-weight="900" fill="#FFCC00" text-anchor="middle">20.000+</text>
  <text x="653" y="162" font-family="Arial,sans-serif" font-size="9" fill="rgba(255,204,0,0.6)" text-anchor="middle" letter-spacing="2">SENDER</text>

  <!-- Card: 3 MIN -->
  <rect x="598" y="188" width="110" height="56" rx="12" fill="rgba(6,4,12,0.95)" stroke="rgba(37,211,102,0.3)" stroke-width="1"/>
  <rect x="598" y="188" width="110" height="4" rx="3" fill="#25d366"/>
  <text x="653" y="216" font-family="Arial Black,sans-serif" font-size="20" font-weight="900" fill="#25d366" text-anchor="middle">3 MIN</text>
  <text x="653" y="234" font-family="Arial,sans-serif" font-size="9" fill="rgba(37,211,102,0.6)" text-anchor="middle" letter-spacing="1.5">AKTIVIERUNG</text>

  <!-- Card: 4K bottom left -->
  <rect x="12" y="300" width="90" height="56" rx="12" fill="rgba(6,4,12,0.95)" stroke="rgba(255,204,0,0.35)" stroke-width="1"/>
  <rect x="12" y="300" width="90" height="4" rx="3" fill="#FFCC00"/>
  <text x="57" y="332" font-family="Arial Black,sans-serif" font-size="26" font-weight="900" fill="#FFCC00" text-anchor="middle" filter="url(#f_glow5)">4K</text>
  <text x="57" y="348" font-family="Arial,sans-serif" font-size="9" fill="rgba(255,204,0,0.6)" text-anchor="middle" letter-spacing="2">STABIL</text>

  <!-- ═══════════════════════════════════════
       BOTTOM BRANDING
  ═══════════════════════════════════════ -->
  <text x="361" y="440" font-family="Arial Black,sans-serif" font-size="10" font-weight="900"
    fill="rgba(255,255,255,0.12)" text-anchor="middle" letter-spacing="6">GERMANY-IPTV.COM</text>
  <!-- Gold accent bottom -->
  <line x1="140" y1="432" x2="580" y2="432" stroke="url(#goldAcc)" stroke-width="1" opacity="0.4"/>

  </g>
</svg>
